<svg width="44" height="44" viewBox="0 0 44 44" fill="none" xmlns="http://www.w3.org/2000/svg">
<path fill-rule="evenodd" clip-rule="evenodd" d="M12.8354 15.3354C12.8354 6.86592 19.7013 0 28.1709 0C36.6404 0 43.5063 6.8659 43.5063 15.3354V29.3963H37.5063V15.3354C37.5063 10.1796 33.3267 6 28.1709 6C23.0151 6 18.8354 10.1796 18.8354 15.3354V29.3963H12.8354V15.3354Z" fill="white"/>
<path fill-rule="evenodd" clip-rule="evenodd" d="M31.1709 27.7863C31.1709 36.2558 24.305 43.1217 15.8355 43.1217C7.36597 43.1217 0.500071 36.2558 0.500071 27.7863V13.7254H6.50007V27.7863C6.50007 32.9421 10.6797 37.1217 15.8355 37.1217C20.9913 37.1217 25.1709 32.9421 25.1709 27.7863L25.1709 13.7254H31.1709V27.7863Z" fill="white"/>
</svg>